HIERARCHY
ROOT mixamorig:Hips
{
	OFFSET 0.000000 102.625267 -0.521241
	CHANNELS 6 Xposition Yposition Zposition Xrotation Yrotation Zrotation
	JOINT mixamorig:Spine
	{
		OFFSET 0.000000 5.645721 -0.031929
		CHANNELS 3 Xrotation Yrotation Zrotation
		JOINT mixamorig:Spine1
		{
			OFFSET 0.000000 6.586685 -0.037251
			CHANNELS 3 Xrotation Yrotation Zrotation
			JOINT mixamorig:Spine2
			{
				OFFSET 0.000000 7.527618 -0.042572
				CHANNELS 3 Xrotation Yrotation Zrotation
				JOINT mixamorig:Neck
				{
					OFFSET 0.000000 8.468590 -0.047894
					CHANNELS 3 Xrotation Yrotation Zrotation
					JOINT mixamorig:Head
					{
						OFFSET 0.000000 5.998901 -1.158958
						CHANNELS 3 Xrotation Yrotation Zrotation
						JOINT mixamorig:HeadTop_End
						{
							OFFSET 0.000000 21.748810 -4.201760
							CHANNELS 3 Xrotation Yrotation Zrotation
							End Site
							{
								OFFSET 0.000000 22.150970 0.000000
							}
						}
					}
				}
				JOINT mixamorig:LeftShoulder
				{
					OFFSET 3.414614 7.343132 -0.058928
					CHANNELS 3 Xrotation Yrotation Zrotation
					JOINT mixamorig:LeftArm
					{
						OFFSET 6.829548 -2.246910 -0.022071
						CHANNELS 3 Xrotation Yrotation Zrotation
						JOINT mixamorig:LeftForeArm
						{
							OFFSET 24.198503 -0.424179 0.257802
							CHANNELS 3 Xrotation Yrotation Zrotation
							JOINT mixamorig:LeftHand
							{
								OFFSET 21.584717 -0.002335 0.669575
								CHANNELS 3 Xrotation Yrotation Zrotation
								JOINT mixamorig:LeftHandThumb1
								{
									OFFSET 2.193897 -1.259628 1.956942
									CHANNELS 3 Xrotation Yrotation Zrotation
									JOINT mixamorig:LeftHandThumb2
									{
										OFFSET 1.755203 -1.007660 1.565605
										CHANNELS 3 Xrotation Yrotation Zrotation
										JOINT mixamorig:LeftHandThumb3
										{
											OFFSET 2.535126 -0.998764 1.490660
											CHANNELS 3 Xrotation Yrotation Zrotation
											JOINT mixamorig:LeftHandThumb4
											{
												OFFSET 2.398251 -0.721657 1.023775
												CHANNELS 3 Xrotation Yrotation Zrotation
												End Site
												{
													OFFSET 2.205696 -0.773872 1.362551
												}
											}
										}
									}
								}
								JOINT mixamorig:LeftHandIndex1
								{
									OFFSET 7.166248 -0.069405 2.369028
									CHANNELS 3 Xrotation Yrotation Zrotation
									JOINT mixamorig:LeftHandIndex2
									{
										OFFSET 2.989986 -0.015724 0.245918
										CHANNELS 3 Xrotation Yrotation Zrotation
										JOINT mixamorig:LeftHandIndex3
										{
											OFFSET 2.739197 -0.058952 0.219132
											CHANNELS 3 Xrotation Yrotation Zrotation
											JOINT mixamorig:LeftHandIndex4
											{
												OFFSET 2.326500 -0.032570 0.188458
												CHANNELS 3 Xrotation Yrotation Zrotation
												End Site
												{
													OFFSET 2.326485 -0.032578 0.188548
												}
											}
										}
									}
								}
								JOINT mixamorig:LeftHandMiddle1
								{
									OFFSET 7.394897 0.286369 0.654762
									CHANNELS 3 Xrotation Yrotation Zrotation
									JOINT mixamorig:LeftHandMiddle2
									{
										OFFSET 3.376106 0.152466 -0.003692
										CHANNELS 3 Xrotation Yrotation Zrotation
										JOINT mixamorig:LeftHandMiddle3
										{
											OFFSET 3.185104 -0.185410 -0.047914
											CHANNELS 3 Xrotation Yrotation Zrotation
											JOINT mixamorig:LeftHandMiddle4
											{
												OFFSET 2.742905 0.223846 0.010354
												CHANNELS 3 Xrotation Yrotation Zrotation
												End Site
												{
													OFFSET 2.742889 0.224251 0.006757
												}
											}
										}
									}
								}
								JOINT mixamorig:LeftHandRing1
								{
									OFFSET 7.508747 0.282753 -1.072900
									CHANNELS 3 Xrotation Yrotation Zrotation
									JOINT mixamorig:LeftHandRing2
									{
										OFFSET 2.821857 0.317802 -0.177266
										CHANNELS 3 Xrotation Yrotation Zrotation
										JOINT mixamorig:LeftHandRing3
										{
											OFFSET 2.672325 0.088310 -0.196165
											CHANNELS 3 Xrotation Yrotation Zrotation
											JOINT mixamorig:LeftHandRing4
											{
												OFFSET 2.272652 -0.053627 -0.183955
												CHANNELS 3 Xrotation Yrotation Zrotation
												End Site
												{
													OFFSET 2.272919 -0.054016 -0.180438
												}
											}
										}
									}
								}
								JOINT mixamorig:LeftHandPinky1
								{
									OFFSET 7.285820 0.522377 -2.660948
									CHANNELS 3 Xrotation Yrotation Zrotation
									JOINT mixamorig:LeftHandPinky2
									{
										OFFSET 2.466278 0.082008 -0.249570
										CHANNELS 3 Xrotation Yrotation Zrotation
										JOINT mixamorig:LeftHandPinky3
										{
											OFFSET 1.940475 0.021858 -0.202004
											CHANNELS 3 Xrotation Yrotation Zrotation
											JOINT mixamorig:LeftHandPinky4
											{
												OFFSET 1.645287 0.153595 -0.153405
												CHANNELS 3 Xrotation Yrotation Zrotation
												End Site
												{
													OFFSET 1.645088 0.153801 -0.155289
												}
											}
										}
									}
								}
							}
						}
					}
				}
				JOINT mixamorig:RightShoulder
				{
					OFFSET -3.414604 7.343132 -0.036860
					CHANNELS 3 Xrotation Yrotation Zrotation
					JOINT mixamorig:RightArm
					{
						OFFSET -6.829551 -2.246986 0.022068
						CHANNELS 3 Xrotation Yrotation Zrotation
						JOINT mixamorig:RightForeArm
						{
							OFFSET -24.198494 -0.424141 0.158696
							CHANNELS 3 Xrotation Yrotation Zrotation
							JOINT mixamorig:RightHand
							{
								OFFSET -21.584698 -0.002243 0.686977
								CHANNELS 3 Xrotation Yrotation Zrotation
								JOINT mixamorig:RightHandThumb1
								{
									OFFSET -2.242882 -1.296806 1.978855
									CHANNELS 3 Xrotation Yrotation Zrotation
									JOINT mixamorig:RightHandThumb2
									{
										OFFSET -1.794239 -1.037361 1.583064
										CHANNELS 3 Xrotation Yrotation Zrotation
										JOINT mixamorig:RightHandThumb3
										{
											OFFSET -2.504150 -0.962166 1.471556
											CHANNELS 3 Xrotation Yrotation Zrotation
											JOINT mixamorig:RightHandThumb4
											{
												OFFSET -2.346046 -0.743172 0.992235
												CHANNELS 3 Xrotation Yrotation Zrotation
												End Site
												{
													OFFSET -2.157112 -0.792709 1.326359
												}
											}
										}
									}
								}
								JOINT mixamorig:RightHandIndex1
								{
									OFFSET -7.174488 -0.001839 2.366265
									CHANNELS 3 Xrotation Yrotation Zrotation
									JOINT mixamorig:RightHandIndex2
									{
										OFFSET -2.935219 -0.016853 0.287245
										CHANNELS 3 Xrotation Yrotation Zrotation
										JOINT mixamorig:RightHandIndex3
										{
											OFFSET -2.786827 -0.129890 0.255971
											CHANNELS 3 Xrotation Yrotation Zrotation
											JOINT mixamorig:RightHandIndex4
											{
												OFFSET -2.343559 0.168816 0.256164
												CHANNELS 3 Xrotation Yrotation Zrotation
												End Site
												{
													OFFSET -2.344208 0.169510 0.249690
												}
											}
										}
									}
								}
								JOINT mixamorig:RightHandMiddle1
								{
									OFFSET -7.274693 0.327965 0.656181
									CHANNELS 3 Xrotation Yrotation Zrotation
									JOINT mixamorig:RightHandMiddle2
									{
										OFFSET -3.309677 0.091591 0.032863
										CHANNELS 3 Xrotation Yrotation Zrotation
										JOINT mixamorig:RightHandMiddle3
										{
											OFFSET -3.186844 -0.122513 0.000971
											CHANNELS 3 Xrotation Yrotation Zrotation
											JOINT mixamorig:RightHandMiddle4
											{
												OFFSET -2.671951 -0.322540 -0.031001
												CHANNELS 3 Xrotation Yrotation Zrotation
												End Site
												{
													OFFSET -2.671928 -0.323486 -0.021820
												}
											}
										}
									}
								}
								JOINT mixamorig:RightHandRing1
								{
									OFFSET -7.453640 0.430428 -1.170334
									CHANNELS 3 Xrotation Yrotation Zrotation
									JOINT mixamorig:RightHandRing2
									{
										OFFSET -2.808174 0.165817 -0.117934
										CHANNELS 3 Xrotation Yrotation Zrotation
										JOINT mixamorig:RightHandRing3
										{
											OFFSET -2.730080 0.127754 -0.119542
											CHANNELS 3 Xrotation Yrotation Zrotation
											JOINT mixamorig:RightHandRing4
											{
												OFFSET -2.349426 0.078133 -0.107466
												CHANNELS 3 Xrotation Yrotation Zrotation
												End Site
												{
													OFFSET -2.349503 0.077988 -0.106043
												}
											}
										}
									}
								}
								JOINT mixamorig:RightHandPinky1
								{
									OFFSET -7.364456 0.463486 -2.604800
									CHANNELS 3 Xrotation Yrotation Zrotation
									JOINT mixamorig:RightHandPinky2
									{
										OFFSET -2.430134 0.174614 -0.251330
										CHANNELS 3 Xrotation Yrotation Zrotation
										JOINT mixamorig:RightHandPinky3
										{
											OFFSET -1.953583 0.007492 -0.220999
											CHANNELS 3 Xrotation Yrotation Zrotation
											JOINT mixamorig:RightHandPinky4
											{
												OFFSET -1.582039 0.276558 -0.139972
												CHANNELS 3 Xrotation Yrotation Zrotation
												End Site
												{
													OFFSET -1.581284 0.277252 -0.147002
												}
											}
										}
									}
								}
							}
						}
					}
				}
			}
		}
	}
	JOINT mixamorig:LeftUpLeg
	{
		OFFSET 6.620181 -8.816864 -0.447179
		CHANNELS 3 Xrotation Yrotation Zrotation
		JOINT mixamorig:LeftLeg
		{
			OFFSET 2.748989 -36.076775 0.650871
			CHANNELS 3 Xrotation Yrotation Zrotation
			JOINT mixamorig:LeftFoot
			{
				OFFSET 1.089303 -46.239017 1.019056
				CHANNELS 3 Xrotation Yrotation Zrotation
				JOINT mixamorig:LeftToeBase
				{
					OFFSET -0.371088 -10.380511 12.650617
					CHANNELS 3 Xrotation Yrotation Zrotation
					JOINT mixamorig:LeftToe_End
					{
						OFFSET -0.094684 -0.116785 6.663326
						CHANNELS 3 Xrotation Yrotation Zrotation
						End Site
						{
							OFFSET -0.094684 -0.116785 6.663326
						}
					}
				}
			}
		}
	}
	JOINT mixamorig:RightUpLeg
	{
		OFFSET -6.620174 -8.816818 -0.447182
		CHANNELS 3 Xrotation Yrotation Zrotation
		JOINT mixamorig:RightLeg
		{
			OFFSET -2.748991 -36.076790 0.753614
			CHANNELS 3 Xrotation Yrotation Zrotation
			JOINT mixamorig:RightFoot
			{
				OFFSET -1.089311 -46.239029 0.372114
				CHANNELS 3 Xrotation Yrotation Zrotation
				JOINT mixamorig:RightToeBase
				{
					OFFSET 0.371103 -10.380659 13.284531
					CHANNELS 3 Xrotation Yrotation Zrotation
					JOINT mixamorig:RightToe_End
					{
						OFFSET 0.094689 -0.116865 6.675873
						CHANNELS 3 Xrotation Yrotation Zrotation
						End Site
						{
							OFFSET 0.094687 -0.116865 6.675871
						}
					}
				}
			}
		}
	}
}
MOTION
Frames: 4
Frame Time: 0.016667
-31.336153 95.625084 -9.198033 29.449228 71.870508 -7.024793 12.022525 -11.397181 9.094795 7.578529 -1.232887 5.567874 7.667786 -1.272977 5.436769 -4.766876 -7.972271 6.204646 -17.188318 -34.238048 4.712133 0.000001 0.000001 -0.000000 -1.641448 16.955115 -2.008429 -14.265093 41.148881 -23.777113 -0.660015 -34.287570 -1.196135 -16.296276 11.289114 11.737483 -1.363966 19.913437 13.545204 2.176160 5.049516 -3.362900 -1.267156 -5.336450 -1.339430 0.000004 0.000001 -0.000001 -0.687238 -7.475703 -11.213591 1.574839 3.151199 -14.047294 1.748693 3.294185 -15.377630 0.000000 -0.000001 -0.000001 -0.511895 -5.223027 -19.012057 0.306504 3.438401 -12.874271 1.027509 5.208417 -26.876438 -0.000000 0.000002 0.000002 0.180326 -1.698094 -32.241204 -0.853832 5.042823 -20.355113 -0.728627 4.959780 -20.559569 -0.000001 0.000002 -0.000004 5.974756 6.712532 -42.874156 -1.253298 2.696027 -28.051476 -1.493331 7.385051 -31.939597 -0.000000 -0.000001 -0.000000 1.110187 3.792952 -8.225140 -50.536819 8.295665 30.675046 -0.676999 34.877313 1.205084 -14.329252 4.246989 -17.646871 3.100704 -26.294452 -1.904666 3.384772 -7.947301 4.149094 -2.964217 -1.786704 -0.541073 0.000001 0.000001 -0.000004 -0.154491 4.393604 11.245125 2.114258 -3.391191 16.151796 3.216775 -4.076632 23.809341 -0.000002 -0.000002 -0.000001 0.059526 3.733787 14.567704 0.569693 -3.483492 15.401033 0.444635 -3.371852 14.311414 0.000000 0.000001 0.000001 0.849653 0.823375 21.451071 -0.296506 -4.627156 21.373264 -0.919018 -4.693715 20.595474 0.000000 -0.000002 -0.000000 2.604769 -2.725472 32.030756 -1.542651 -4.727533 20.197925 -1.938628 -6.907796 32.726722 -0.000001 0.000002 0.000000 -25.663492 14.317387 5.641286 45.944842 10.409200 0.597133 9.269047 -0.415047 -22.405785 -10.454023 0.000017 0.000006 0.000001 -0.000001 0.000000 -47.285533 -1.422097 -26.219496 50.833225 -11.713032 -0.843172 -15.957294 -4.638133 3.712059 -0.001496 -0.000006 0.000000 0.000000 0.000000 -0.000000 
-31.169235 95.164879 -9.446365 29.845160 71.621118 -7.988163 11.695058 -11.810396 9.077113 7.790126 -1.249064 5.793836 7.886267 -1.295730 5.653783 -4.876465 -7.839488 6.265669 -17.208998 -33.389045 4.609835 0.000002 -0.000000 0.000001 -1.694495 17.493803 -2.178987 -15.322870 41.949594 -22.356857 -0.678189 -34.996755 -1.206206 -15.333626 10.962512 11.977291 -1.363967 19.913437 13.545209 2.176157 5.049512 -3.362903 -1.267154 -5.336448 -1.339427 0.000004 0.000003 0.000001 -0.687506 -7.474488 -11.218663 1.622391 3.220642 -14.390782 1.707852 3.236412 -15.088491 -0.000000 -0.000000 0.000001 -0.512210 -5.216411 -19.039671 0.316258 3.482265 -13.072948 1.024140 5.200571 -26.838515 -0.000000 0.000001 0.000003 0.183154 -1.685122 -32.298127 -0.853757 5.065440 -20.452163 -0.727763 4.992204 -20.699665 0.000001 0.000002 0.000000 5.994474 6.724987 -42.975547 -1.253255 2.696979 -28.055243 -1.485518 7.470541 -32.281024 -0.000000 -0.000001 -0.000000 1.149819 3.981616 -8.255855 -50.657092 8.576268 30.823028 -0.690470 35.396123 1.212661 -14.131853 4.948206 -16.843576 3.100702 -26.294458 -1.904664 3.384773 -7.947304 4.149092 -2.964222 -1.786705 -0.541069 0.000001 -0.000003 -0.000001 -0.154081 4.369854 11.353578 2.158547 -3.441355 16.432433 3.301827 -4.154808 24.302638 -0.000003 -0.000000 0.000000 0.060764 3.716247 14.649183 0.582276 -3.522598 15.594060 0.491130 -3.442269 14.696149 0.000000 -0.000001 -0.000003 0.854485 0.808620 21.524313 -0.293075 -4.654675 21.501895 -0.896150 -4.757275 20.900852 -0.000001 0.000000 0.000000 2.615276 -2.739444 32.113289 -1.545560 -4.746384 20.278746 -1.936697 -6.974445 33.005001 0.000001 -0.000001 -0.000000 -21.765072 15.963438 3.568226 36.672512 11.480965 1.711605 9.827455 -0.522482 -23.635615 -12.378114 -0.000046 0.000014 0.000001 0.000001 -0.000001 -48.110022 -1.286695 -25.906718 52.147845 -11.680775 -0.685406 -16.420094 -4.469656 3.882567 -0.001655 0.000008 -0.000004 -0.000000 0.000000 0.000000 
-30.995108 94.784592 -9.723824 29.967831 71.337221 -8.719305 11.426031 -12.108055 9.042516 7.983741 -1.257180 5.963920 8.085185 -1.309350 5.816507 -4.839646 -7.758319 6.511151 -17.216842 -32.706293 4.600948 0.000002 0.000001 -0.000000 -1.770707 18.272062 -2.376061 -16.894772 42.194785 -20.688703 -0.695564 -35.663611 -1.216082 -14.382613 11.338419 12.483908 -1.363969 19.913437 13.545211 2.176158 5.049518 -3.362904 -1.267153 -5.336446 -1.339430 -0.000000 0.000001 0.000000 -0.684046 -7.490909 -11.150890 1.666096 3.283680 -14.703878 1.695526 3.218865 -15.000871 0.000000 -0.000001 -0.000001 -0.512402 -5.212519 -19.055941 0.324511 3.518886 -13.239027 1.029639 5.213378 -26.900370 0.000001 -0.000000 0.000001 0.188432 -1.661184 -32.403196 -0.853682 5.081311 -20.520195 -0.726636 5.030828 -20.866827 -0.000000 0.000001 0.000001 6.037768 6.752151 -43.197658 -1.253847 2.684405 -28.004745 -1.477960 7.548394 -32.592235 0.000001 0.000001 -0.000001 1.225480 4.343428 -8.354045 -50.587540 8.381878 30.810328 -0.708279 36.073811 1.222869 -13.953799 4.298878 -16.059233 3.100696 -26.294454 -1.904666 3.384778 -7.947300 4.149091 -2.964215 -1.786700 -0.541071 0.000002 -0.000001 0.000001 -0.153895 4.359124 11.402386 2.199274 -3.487023 16.689084 3.366250 -4.213114 24.673789 0.000000 0.000001 0.000002 0.061746 3.702600 14.712461 0.593115 -3.555997 15.759103 0.528842 -3.497473 15.000977 -0.000000 0.000002 0.000001 0.860620 0.789909 21.617219 -0.290333 -4.676345 21.603111 -0.877384 -4.810688 21.157040 0.000001 0.000002 0.000000 2.633683 -2.763925 32.257706 -1.546867 -4.754884 20.315149 -1.934649 -7.035386 33.259480 -0.000002 0.000006 -0.000000 -18.315323 16.649867 1.780712 29.229648 11.256187 2.310919 10.640806 1.112142 -24.848877 -19.881784 0.011874 -0.113416 -0.000000 -0.000003 -0.000000 -48.675251 -1.170081 -25.517221 53.175611 -11.645616 -0.544819 -16.767440 -4.332680 4.065219 -0.001753 -0.000001 -0.000000 -0.000000 -0.000002 -0.000000 
-30.843693 94.554443 -9.978397 29.816262 71.125246 -9.167635 11.237301 -12.255499 8.988040 8.099222 -1.258483 6.062743 8.203807 -1.313587 5.911168 -4.570024 -7.738270 6.917753 -17.217978 -32.337640 4.719146 -0.000004 -0.000001 -0.000000 -1.856117 19.147805 -2.539103 -18.921005 41.701522 -18.973714 -0.707972 -36.133477 -1.223184 -13.580303 12.229589 13.267644 -1.363966 19.913440 13.545204 2.176158 5.049515 -3.362900 -1.267152 -5.336449 -1.339429 0.000003 -0.000001 -0.000002 -0.680470 -7.507706 -11.081406 1.696791 3.327514 -14.922427 1.713023 3.243756 -15.125198 0.000001 -0.000001 -0.000001 -0.512852 -5.203214 -19.094721 0.330412 3.544706 -13.356206 1.042875 5.244032 -27.048586 0.000001 0.000001 -0.000002 0.196430 -1.625284 -32.560625 -0.853610 5.093921 -20.574166 -0.725403 5.068668 -21.030475 0.000000 -0.000002 0.000004 6.099991 6.790779 -43.515979 -1.254432 2.671524 -27.952956 -1.472426 7.602720 -32.809480 -0.000000 -0.000000 0.000002 1.335393 4.857089 -8.495908 -50.239224 7.623209 30.619970 -0.727908 36.805868 1.234288 -13.808359 2.382358 -15.421515 3.100698 -26.294459 -1.904662 3.384773 -7.947306 4.149097 -2.964220 -1.786704 -0.541071 0.000002 -0.000000 -0.000003 -0.153767 4.353672 11.427282 2.232449 -3.523942 16.897398 3.420151 -4.261304 24.982581 0.000000 -0.000001 0.000001 0.062776 3.688458 14.778065 0.601988 -3.583076 15.893024 0.560616 -3.542653 15.252724 0.000001 0.000002 -0.000001 0.868790 0.765261 21.739643 -0.287996 -4.694442 21.687864 -0.861435 -4.854267 21.367359 0.000002 -0.000004 -0.000001 2.660336 -2.799048 32.465675 -1.547491 -4.759204 20.333704 -1.932802 -7.084840 33.466038 0.000000 0.000000 0.000000 -17.992325 16.465484 0.931888 28.881404 12.075504 2.273228 4.820151 4.546679 -23.891281 -16.749442 -0.000005 0.000007 -0.000000 -0.000003 -0.000000 -48.826915 -1.090681 -25.050929 53.742555 -11.616054 -0.456684 -16.949464 -4.355070 4.240662 -0.001754 -0.000004 -0.000000 -0.000000 0.000000 -0.000000 
